# xmcd CD database file
#
# Track frame offsets:
#	150
#	14457
#	27697
#	38122
#	54152
#	73797
#	88310
#	105165
#	124502
#	137987
#
# Disc length: 2065 seconds
#
# Revision: 0
# Processed by: cddbd v1.5PL3 Copyright (c) Steve Scherf et al.
# Submitted via: Feurio! 1.66.7ß - http://www.feurio.com
#
DISCID=85080f0a
DTITLE=Kathy Mattea - Willow In The Wind
DYEAR=1989
DGENRE=Country
TTITLE0=Come From The Heart
TTITLE1=Here's Hopin'
TTITLE2=Burnin' Old Memories
TTITLE3=She Came From Fort Worth
TTITLE4=True North
TTITLE5=Hills Of Alabam'
TTITLE6=Willow In The Wind
TTITLE7=Love Chooses You
TTITLE8=I'll Take Care Of You
TTITLE9=Where've You Been
EXTD=Arrangement: Produced by Allen Reynolds\r\nKommentar: 1989 Polygram, upc 
EXTD=042283695026\r\n
EXTT0=
EXTT1=
EXTT2=
EXTT3=
EXTT4=
EXTT5=
EXTT6=
EXTT7=
EXTT8=
EXTT9=
PLAYORDER=
